# xmcd
#
# Track frame offsets: 
#        150
#        39063
#        70125
#        94425
#        119325
#        211725
#        237938
#
# Disc length: 3484 seconds
#
# Revision: 1
# Processed by: cddbd v1.5.1PL0 Copyright (c) Steve Scherf et al.
# Submitted via: ExactAudioCopy v0.95a5
#
DISCID=570d9a07
DTITLE=Various Artist - Tarot Music: fate
DYEAR=1900
DGENRE=New Age
TTITLE0=Psycho
TTITLE1=Qrcana
TTITLE2=Seven Thcnders For The Prophecy
TTITLE3=The Sign of Srlodtion
TTITLE4=In To Brain
TTITLE5=Brother Of The Dniverse
TTITLE6=Cosmology
EXTD=
EXTT0=
EXTT1=
EXTT2=
EXTT3=
EXTT4=
EXTT5=
EXTT6=
PLAYORDER=
